<?xml version="1.0" encoding="iso-8859-1"?>
<!-- Generator: Adobe Illustrator 19.0.0, SVG Export Plug-In . SVG Version: 6.00 Build 0)  -->
<svg version="1.1" id="Capa_1" xmlns="http://www.w3.org/2000/svg" xmlns:xlink="http://www.w3.org/1999/xlink" x="0px" y="0px"
	 viewBox="0 0 511.998 511.998" style="enable-background:new 0 0 511.998 511.998;" xml:space="preserve">
<g>
	<g>
		<path d="M336.746,230.801c-2.692-3.224-7.487-3.654-10.71-0.964c-3.224,2.692-3.655,7.487-0.964,10.71
			c13.455,16.115,20.865,36.573,20.865,57.605c0,15.416-3.9,29.936-10.763,42.632c-1.8-16.012-8.357-30.598-18.228-42.316
			c6.107-3.177,10.974-8.534,13.608-15.465c4.554-11.982,1.019-24.896-9.004-32.899c-18.521-14.786-41.801-22.93-65.55-22.93
			c-23.749,0-47.028,8.143-65.548,22.93c-10.024,8.003-13.558,20.916-9.004,32.899c2.633,6.93,7.5,12.29,13.6,15.468
			c-9.871,11.716-16.429,26.3-18.229,42.309c-6.862-12.695-10.761-27.213-10.761-42.627c0-49.594,40.347-89.941,89.941-89.941
			c18.389,0,36.069,5.51,51.127,15.934c3.453,2.391,8.19,1.529,10.581-1.923c2.391-3.453,1.529-8.19-1.923-10.581
			c-17.614-12.193-38.286-18.638-59.783-18.638c-57.98,0-105.149,47.169-105.149,105.149s47.169,105.149,105.149,105.149
			c57.98,0,105.149-47.169,105.149-105.149C361.146,273.565,352.48,249.646,336.746,230.801z M199.939,261.989
			c16.067-12.826,35.452-19.606,56.06-19.606c20.61,0,39.995,6.781,56.062,19.607c5.776,4.611,5.997,11.089,4.277,15.611
			c-1.593,4.19-5.523,8.514-11.945,8.879c-13.428-10.299-30.203-16.439-48.394-16.439c-18.193,0-34.97,6.14-48.399,16.439
			c-6.401-0.361-10.345-4.691-11.938-8.881C193.944,273.076,194.164,266.6,199.939,261.989z M319.293,361.986
			c-16.264,16.13-38.636,26.108-63.297,26.108c-24.664,0-47.039-9.983-63.303-26.115c-0.771-4.013-1.185-8.115-1.185-12.235
			c0-35.561,28.931-64.492,64.492-64.492c35.556,0,64.484,28.932,64.484,64.492C320.483,353.874,320.067,357.978,319.293,361.986z"
			/>
	</g>
</g>
<g>
	<g>
		<path d="M488.772,290.548H375.301c-4.199,0-7.604,3.405-7.604,7.604s3.405,7.604,7.604,7.604h113.471
			c4.422,0,8.02,3.597,8.02,8.02c0,2.004-0.739,3.914-2.098,5.399c-1.345,1.479-3.182,2.397-5.173,2.582l-122.809,11.528
			c-4.181,0.392-7.253,4.1-6.861,8.281c0.37,3.94,3.682,6.894,7.561,6.894c0.237,0,0.479-0.011,0.72-0.033l7.311-0.686
			c-3.996,5.831-6.34,12.878-6.34,20.466c0,20.014,16.283,36.296,36.296,36.296s36.296-16.283,36.296-36.296
			c0-10.022-4.084-19.108-10.674-25.683l59.915-5.624c5.775-0.539,11.105-3.201,14.988-7.474c3.916-4.276,6.072-9.833,6.072-15.65
			C512,300.968,501.581,290.548,488.772,290.548z M405.402,389.294c-11.628,0-21.088-9.46-21.088-21.088s9.46-21.088,21.088-21.088
			s21.088,9.46,21.088,21.088S417.031,389.294,405.402,389.294z"/>
	</g>
</g>
<g>
	<g>
		<path d="M145.287,333.296L22.474,321.758c-1.988-0.187-3.823-1.103-5.188-2.604c-1.34-1.464-2.078-3.374-2.078-5.379
			c0-4.422,3.597-8.02,8.02-8.02h21.887c4.199,0,7.604-3.405,7.604-7.604s-3.405-7.604-7.604-7.604H23.228
			C10.42,290.548,0,300.968,0,313.776c0,5.817,2.156,11.375,6.053,15.629c3.903,4.294,9.232,6.955,15.003,7.494l59.909,5.628
			c-6.588,6.574-10.67,15.658-10.67,25.679c0,20.014,16.283,36.296,36.296,36.296s36.296-16.283,36.296-36.296
			c0-7.583-2.341-14.627-6.333-20.456l7.311,0.686c0.242,0.022,0.483,0.033,0.72,0.033c3.879,0,7.191-2.954,7.561-6.893
			C152.539,337.396,149.469,333.688,145.287,333.296z M106.591,389.294c-11.628,0-21.088-9.46-21.088-21.088
			s9.46-21.088,21.088-21.088s21.088,9.46,21.088,21.088S118.219,389.294,106.591,389.294z"/>
	</g>
</g>
<g>
	<g>
		<path d="M136.699,290.548H70.463c-4.199,0-7.604,3.405-7.604,7.604s3.405,7.604,7.604,7.604h66.236
			c4.199,0,7.604-3.405,7.604-7.604S140.898,290.548,136.699,290.548z"/>
	</g>
</g>
<g>
	<g>
		<path d="M256,107.496c-13.416,0-24.333,10.915-24.333,24.333v45.85c0,4.199,3.405,7.604,7.604,7.604s7.604-3.405,7.604-7.604
			v-45.85c0-5.031,4.094-9.125,9.125-9.125c5.031,0,9.125,4.094,9.125,9.125v45.85c0,4.199,3.405,7.604,7.604,7.604
			c4.199,0,7.604-3.405,7.604-7.604v-45.85C280.333,118.411,269.416,107.496,256,107.496z"/>
	</g>
</g>
<g>
</g>
<g>
</g>
<g>
</g>
<g>
</g>
<g>
</g>
<g>
</g>
<g>
</g>
<g>
</g>
<g>
</g>
<g>
</g>
<g>
</g>
<g>
</g>
<g>
</g>
<g>
</g>
<g>
</g>
</svg>
