<svg id="Capa_1" enable-background="new 0 0 511.875 511.875" height="512" viewBox="0 0 511.875 511.875" width="512" xmlns="http://www.w3.org/2000/svg"><g><path d="m321.797 95.625v-31.464c20.585-4.127 36.141-22.339 36.141-44.12v-20.041h-30v20.042c0 8.271-6.729 15-15 15h-114c-8.271 0-15-6.729-15-15v-20.042h-30v20.042c0 21.781 15.556 39.993 36.141 44.12v31.464h-103.601v311.581c0 24.813 20.187 45 45 45h27.999l-30.776 38.4v21.269h254.475v-21.269l-30.776-38.4h27.999c24.813 0 45-20.187 45-45v-311.582zm-147.653 386.25 23.729-29.606h116.131l23.729 29.606zm45.934-416.833h71.719v30.583h-71.719zm175.319 60.583v30.063h-278.92v-30.063zm0 60.063v117.312h-278.92v-117.312zm-15 236.518h-248.92c-8.271 0-15-6.729-15-15v-14.94h58.601v-30h-58.601v-29.266h278.92v29.266h-58.601v30h58.601v14.94c0 8.271-6.728 15-15 15z"/><path d="m240.938 362.266h30v30h-30z"/></g></svg>