<svg width="0" height="0" class="hidden">
    <symbol xmlns="http://www.w3.org/2000/svg" viewBox="0 0 510.115 510.115" id="edit">
        <path d="m349.967 494.891h-242.387l5.98-7.127c.001-.001.003-.003.004-.004.001-.002.002-.003.004-.005l61.307-73.058c2.663-3.173 2.249-7.904-.924-10.566-3.173-2.664-7.904-2.249-10.566.924l-56.49 67.318-17.78-14.92 257.827-307.247 17.78 14.92-180.713 215.351c-2.663 3.173-2.249 7.904.924 10.566 3.172 2.663 7.903 2.248 10.566-.924l239.051-284.871c17.18-20.473 13.969-51.551-7.156-69.28l-28.43-23.855c-21.127-17.728-52.291-15.496-69.471 4.977l-320.984 382.51s-.001.001-.001.001-.001.001-.001.001l-6.751 8.045c-1.192 1.421-1.815 3.232-1.75 5.085l2.892 82.111c.156 4.402 2.201 8.569 5.612 11.432 2.855 2.396 6.444 3.691 10.097 3.691.481 0 331.362-.076 331.362-.076 4.143 0 7.5-3.357 7.5-7.5s-3.359-7.499-7.502-7.499zm-332.815-21.454 22.197 18.627-20.689 2.9c-.226.034-.414-.098-.509-.178-.095-.079-.255-.247-.263-.47zm80.021 10.521-37.828 5.302-42.903-36.002-1.344-38.175.08-.095 82.076 68.875zm-19.549-36.148-21.47-18.017 204.462-243.652c2.663-3.173 2.249-7.904-.924-10.566-3.174-2.664-7.904-2.249-10.566.924l-204.462 243.652-19.845-16.653 257.827-307.247 19.845 16.654-32.741 39.017c-2.663 3.173-2.249 7.904.924 10.566 1.405 1.18 3.116 1.755 4.817 1.755 2.141 0 4.266-.911 5.749-2.679l32.741-39.017 21.469 18.016zm263.36-421.078c11.862-14.138 33.549-15.539 48.338-3.129l28.43 23.855c14.79 12.412 17.171 34.011 5.309 48.147l-27.233 32.453-7.757-6.509c-3.174-2.664-7.904-2.248-10.566.924-2.663 3.173-2.249 7.904.924 10.566l7.757 6.509-11.82 14.085-82.077-68.873 11.819-14.084 49.813 41.8c1.405 1.18 3.116 1.755 4.817 1.755 2.141 0 4.266-.911 5.749-2.679 2.663-3.173 2.249-7.904-.924-10.566l-49.814-41.8z"></path>
        <path d="m502.615 494.891h-113.279c-4.143 0-7.5 3.357-7.5 7.5s3.357 7.5 7.5 7.5h113.279c4.143 0 7.5-3.357 7.5-7.5s-3.357-7.5-7.5-7.5z"></path>
    </symbol>
    <symbol xmlns="http://www.w3.org/2000/svg" viewBox="0 0 64 64" id="set">
        <path d="m62 43h-1.382l-1.32-2.641 1.137-1.138c.391-.391.391-1.023 0-1.414l-4.243-4.242c-.391-.391-1.023-.391-1.414 0l-1.137 1.137-2.641-1.32v-1.382c0-.552-.448-1-1-1h-6c-.552 0-1 .448-1 1v1.382l-2.641 1.32-1.137-1.137c-.391-.391-1.023-.391-1.414 0l-4.243 4.242c-.391.391-.391 1.023 0 1.414l1.137 1.138-1.32 2.641h-1.382c-.552 0-1 .447-1 1v6c0 .553.448 1 1 1h1.382l1.32 2.641-1.137 1.138c-.391.391-.391 1.023 0 1.414l4.243 4.242c.391.391 1.023.391 1.414 0l1.137-1.137 2.641 1.32v1.382c0 .553.448 1 1 1h6c.552 0 1-.447 1-1v-1.382l2.641-1.32 1.137 1.137c.391.391 1.023.391 1.414 0l4.243-4.242c.391-.391.391-1.023 0-1.414l-1.137-1.138 1.32-2.641h1.382c.552 0 1-.447 1-1v-6c0-.553-.448-1-1-1zm-1 6h-1c-.379 0-.725.214-.895.553l-1.919 3.838c-.192.385-.117.85.188 1.154l.94.94-2.829 2.828-.94-.939c-.304-.305-.768-.381-1.154-.188l-3.838 1.919c-.339.17-.553.516-.553.895v1h-4v-1c0-.379-.214-.725-.553-.895l-3.838-1.919c-.385-.194-.851-.118-1.154.188l-.94.939-2.829-2.828.94-.94c.305-.305.38-.77.188-1.154l-1.919-3.838c-.17-.339-.516-.553-.895-.553h-1v-4h1c.379 0 .725-.214.895-.553l1.919-3.838c.192-.385.117-.85-.188-1.154l-.94-.94 2.829-2.828.94.939c.304.305.769.381 1.154.188l3.838-1.919c.339-.17.553-.516.553-.895v-1h4v1c0 .379.214.725.553.895l3.838 1.919c.384.192.85.117 1.154-.188l.94-.939 2.829 2.828-.94.94c-.305.305-.38.77-.188 1.154l1.919 3.838c.17.339.516.553.895.553h1z"/><path d="m47 37c-5.514 0-10 4.486-10 10s4.486 10 10 10 10-4.486 10-10-4.486-10-10-10zm0 18c-4.411 0-8-3.589-8-8s3.589-8 8-8 8 3.589 8 8-3.589 8-8 8z"/><path d="m34 21c0-7.168-5.832-13-13-13s-13 5.832-13 13 5.832 13 13 13 13-5.832 13-13zm-13 11c-6.065 0-11-4.935-11-11s4.935-11 11-11 11 4.935 11 11-4.935 11-11 11z"/><path d="m30.975 37.447-.826-2.019.623-.415 1.542 1.543c.375.375 1.039.375 1.414 0l2.828-2.829c.391-.391.391-1.023 0-1.414l-1.54-1.54.339-.505 2.008.842c.246.104.521.104.766.003.246-.1.441-.294.543-.539l1.546-3.689c.103-.245.104-.52.003-.765s-.294-.441-.539-.543l-2.011-.843.148-.734h2.181c.552 0 1-.448 1-1v-4c0-.552-.448-1-1-1h-2.178l-.117-.597 2.015-.825c.246-.101.441-.294.543-.539s.104-.52.003-.765l-1.516-3.702c-.208-.511-.791-.754-1.304-.546l-2.019.826-.414-.623 1.542-1.542c.391-.391.391-1.023 0-1.414l-2.828-2.828c-.391-.391-1.023-.391-1.414 0l-1.54 1.54-.505-.339.842-2.008c.103-.245.104-.52.003-.766-.1-.246-.294-.441-.539-.543l-3.689-1.546c-.244-.103-.519-.103-.765-.003-.246.101-.441.294-.543.539l-.843 2.011-.734-.149v-2.181c0-.552-.448-1-1-1h-4c-.552 0-1 .448-1 1v2.178l-.597.117-.825-2.015c-.101-.246-.294-.441-.539-.543-.244-.102-.52-.104-.765-.003l-3.702 1.516c-.511.209-.756.793-.546 1.304l.826 2.019-.623.414-1.543-1.543c-.391-.391-1.023-.391-1.414 0l-2.828 2.828c-.391.391-.391 1.023 0 1.414l1.54 1.54-.339.505-2.009-.841c-.244-.102-.52-.104-.766-.003-.246.1-.441.294-.543.539l-1.546 3.689c-.103.245-.104.52-.003.765s.294.441.539.543l2.011.843-.147.734h-2.181c-.552 0-1 .448-1 1v4c0 .552.448 1 1 1h2.178l.117.597-2.015.825c-.246.101-.441.294-.543.539s-.104.52-.003.765l1.516 3.702c.209.511.793.757 1.304.546l2.019-.826.414.623-1.542 1.542c-.391.391-.391 1.023 0 1.414l2.828 2.829c.188.188.442.293.707.293s.52-.105.707-.293l1.54-1.54.505.339-.842 2.009c-.103.245-.104.521-.003.766s.294.44.539.543l3.689 1.546c.245.104.52.105.765.004.246-.101.441-.295.543-.539l.843-2.013.734.147v2.182c0 .553.448 1 1 1h4c.552 0 1-.447 1-1v-2.178l.597-.117.825 2.015c.209.511.793.757 1.304.547l3.702-1.515c.245-.101.441-.295.543-.539.103-.245.104-.521.004-.766zm-4.081.59-.758-1.851c-.181-.441-.649-.691-1.118-.603l-2.211.435c-.469.093-.807.504-.807.982v2h-2v-2c0-.477-.336-.887-.803-.98l-2.339-.471c-.466-.097-.935.155-1.12.594l-.773 1.846-1.845-.773.773-1.845c.185-.441.032-.951-.365-1.217l-1.871-1.256c-.396-.268-.926-.215-1.264.123l-1.415 1.415-1.414-1.415 1.414-1.414c.337-.337.389-.864.125-1.261l-1.321-1.987c-.263-.396-.77-.554-1.211-.372l-1.851.758-.758-1.851 1.851-.758c.442-.181.694-.649.602-1.118l-.435-2.211c-.091-.469-.502-.807-.98-.807h-2v-2h2c.477 0 .887-.336.98-.803l.47-2.339c.094-.467-.155-.936-.594-1.12l-1.844-.772.773-1.845 1.844.773c.44.185.951.031 1.217-.365l1.256-1.871c.267-.396.215-.926-.123-1.264l-1.414-1.415 1.414-1.414 1.415 1.414c.335.336.863.389 1.261.125l1.987-1.321c.396-.264.552-.771.372-1.211l-.758-1.851 1.851-.758.758 1.851c.181.442.653.7 1.118.602l2.211-.435c.468-.092.806-.503.806-.981v-2h2v2c0 .477.336.887.803.98l2.339.47c.47.094.936-.155 1.12-.594l.772-1.844 1.845.773-.773 1.844c-.185.441-.032.951.365 1.217l1.871 1.256c.396.267.926.215 1.264-.123l1.415-1.414 1.414 1.414-1.414 1.415c-.337.337-.389.864-.125 1.261l1.321 1.987c.264.396.771.554 1.211.372l1.851-.758.758 1.851-1.851.758c-.442.181-.694.649-.602 1.118l.435 2.211c.092.468.503.806.981.806h2v2h-2c-.477 0-.887.336-.98.803l-.47 2.339c-.094.467.155.936.594 1.12l1.844.772-.773 1.845-1.844-.773c-.44-.186-.95-.031-1.217.365l-1.256 1.871c-.267.396-.215.926.123 1.264l1.414 1.414-1.414 1.415-1.415-1.415c-.337-.337-.864-.391-1.261-.125l-1.987 1.323c-.396.264-.552.771-.371 1.211l.758 1.851z"/><path d="m26 51h-.758l.536-.536c.188-.188.293-.441.293-.707s-.105-.52-.293-.707l-2.829-2.828c-.391-.391-1.023-.391-1.414 0l-.535.535v-.757c0-.553-.448-1-1-1h-4c-.552 0-1 .447-1 1v.757l-.536-.535c-.391-.391-1.023-.391-1.414 0l-2.829 2.828c-.188.188-.293.441-.293.707s.105.52.293.707l.537.536h-.758c-.552 0-1 .447-1 1v4c0 .553.448 1 1 1h.757l-.535.535c-.391.391-.391 1.023 0 1.414l2.829 2.829c.188.188.442.293.707.293s.52-.105.707-.293l.535-.535v.757c0 .553.448 1 1 1h4c.552 0 1-.447 1-1v-.757l.536.535c.375.375 1.039.375 1.414 0l2.829-2.829c.391-.391.391-1.023 0-1.414l-.536-.535h.757c.552 0 1-.447 1-1v-4c0-.553-.448-1-1-1zm-1 4h-1.349c-.424 0-.802.268-.943.667-.059.166-.126.327-.201.483-.182.383-.104.838.196 1.138l.954.954-1.415 1.415-.954-.954c-.299-.3-.755-.38-1.136-.196-.158.075-.319.143-.485.201-.399.142-.667.52-.667.943v1.349h-2v-1.349c0-.424-.268-.802-.667-.943-.167-.059-.328-.126-.485-.201-.383-.183-.837-.102-1.136.196l-.954.954-1.415-1.415.954-.954c.299-.3.378-.755.196-1.138-.075-.156-.143-.317-.201-.483-.142-.399-.52-.667-.943-.667h-1.349v-2h1.349c.424 0 .802-.268.943-.667.059-.167.127-.328.202-.486.181-.382.103-.837-.196-1.136l-.954-.954 1.415-1.414.954.954c.299.299.753.378 1.136.196.158-.075.319-.143.485-.201.398-.142.666-.52.666-.943v-1.349h2v1.349c0 .424.268.802.667.943.167.059.328.126.485.201.383.182.837.103 1.136-.196l.954-.954 1.415 1.414-.954.954c-.299.299-.377.754-.196 1.136.075.158.143.319.202.486.141.399.519.667.942.667h1.349z"/><path d="m18 50c-2.206 0-4 1.794-4 4s1.794 4 4 4 4-1.794 4-4-1.794-4-4-4zm0 6c-1.103 0-2-.897-2-2s.897-2 2-2 2 .897 2 2-.897 2-2 2z"/>
    </symbol>
    <symbol xmlns="http://www.w3.org/2000/svg" viewBox="0 0 480 480" id="user">
        <path d="M240,0C107.664,0,0,107.664,0,240c0,57.96,20.656,111.184,54.992,152.704c0.088,0.12,0.096,0.272,0.192,0.384
			c24.792,29.896,55.928,52.816,90.624,67.624c0.4,0.168,0.792,0.352,1.192,0.52c2.808,1.184,5.648,2.28,8.496,3.352
			c1.12,0.424,2.24,0.856,3.376,1.264c2.456,0.88,4.928,1.712,7.416,2.512c1.592,0.512,3.184,1.016,4.792,1.496
			c2.2,0.656,4.408,1.288,6.632,1.888c1.952,0.528,3.92,1.016,5.888,1.488c1.992,0.48,3.992,0.96,6,1.384
			c2.24,0.48,4.504,0.904,6.776,1.32c1.824,0.336,3.64,0.688,5.48,0.984c2.52,0.408,5.056,0.728,7.6,1.056
			c1.64,0.208,3.272,0.448,4.92,0.624c2.88,0.304,5.784,0.52,8.696,0.72c1.352,0.096,2.696,0.24,4.056,0.312
			c4.248,0.24,8.544,0.368,12.872,0.368s8.624-0.128,12.888-0.352c1.36-0.072,2.704-0.216,4.056-0.312
			c2.912-0.208,5.816-0.416,8.696-0.72c1.648-0.176,3.28-0.416,4.92-0.624c2.544-0.328,5.08-0.648,7.6-1.056
			c1.832-0.296,3.656-0.648,5.48-0.984c2.264-0.416,4.528-0.84,6.776-1.32c2.008-0.432,4-0.904,6-1.384
			c1.968-0.48,3.936-0.968,5.888-1.488c2.224-0.592,4.432-1.232,6.632-1.888c1.608-0.48,3.2-0.984,4.792-1.496
			c2.488-0.8,4.96-1.632,7.416-2.512c1.128-0.408,2.248-0.84,3.376-1.264c2.856-1.072,5.688-2.176,8.496-3.352
			c0.4-0.168,0.792-0.352,1.192-0.52c34.688-14.808,65.832-37.728,90.624-67.624c0.096-0.112,0.104-0.272,0.192-0.384
			C459.344,351.184,480,297.96,480,240C480,107.664,372.336,0,240,0z M337.256,441.76c-0.12,0.056-0.232,0.12-0.352,0.176
			c-2.856,1.376-5.76,2.672-8.688,3.936c-0.664,0.28-1.32,0.568-1.984,0.848c-2.56,1.072-5.152,2.088-7.76,3.064
			c-1.088,0.408-2.176,0.808-3.272,1.192c-2.312,0.824-4.632,1.616-6.976,2.368c-1.456,0.464-2.92,0.904-4.384,1.336
			c-2.08,0.624-4.168,1.224-6.28,1.784c-1.776,0.472-3.568,0.904-5.36,1.328c-1.88,0.448-3.752,0.904-5.648,1.304
			c-2.072,0.44-4.16,0.816-6.24,1.192c-1.688,0.312-3.368,0.64-5.072,0.912c-2.344,0.368-4.712,0.664-7.072,0.96
			c-1.496,0.192-2.984,0.416-4.496,0.576c-2.696,0.288-5.416,0.472-8.128,0.664c-1.208,0.08-2.408,0.216-3.632,0.28
			c-3.96,0.208-7.928,0.32-11.912,0.32s-7.952-0.112-11.904-0.32c-1.216-0.064-2.416-0.192-3.632-0.28
			c-2.72-0.184-5.432-0.376-8.128-0.664c-1.512-0.16-3-0.384-4.496-0.576c-2.36-0.296-4.728-0.592-7.072-0.96
			c-1.704-0.272-3.384-0.6-5.072-0.912c-2.088-0.376-4.176-0.76-6.24-1.192c-1.896-0.4-3.776-0.856-5.648-1.304
			c-1.792-0.432-3.584-0.856-5.36-1.328c-2.104-0.56-4.2-1.168-6.28-1.784c-1.464-0.432-2.928-0.872-4.384-1.336
			c-2.344-0.752-4.672-1.544-6.976-2.368c-1.096-0.392-2.184-0.792-3.272-1.192c-2.608-0.976-5.2-1.992-7.76-3.064
			c-0.664-0.272-1.312-0.56-1.976-0.84c-2.928-1.256-5.832-2.56-8.696-3.936c-0.12-0.056-0.232-0.112-0.352-0.176
			c-27.912-13.504-52.568-32.672-72.576-55.952c15.464-56.944,59.24-102.848,115.56-121.112c1.112,0.68,2.272,1.288,3.416,1.928
			c0.672,0.376,1.336,0.776,2.016,1.136c2.384,1.264,4.8,2.448,7.272,3.512c1.896,0.832,3.856,1.536,5.808,2.256
			c0.384,0.136,0.768,0.288,1.152,0.424c10.848,3.84,22.456,6.04,34.6,6.04s23.752-2.2,34.592-6.04
			c0.384-0.136,0.768-0.288,1.152-0.424c1.952-0.72,3.912-1.424,5.808-2.256c2.472-1.064,4.888-2.248,7.272-3.512
			c0.68-0.368,1.344-0.76,2.016-1.136c1.144-0.64,2.312-1.248,3.432-1.936c56.32,18.272,100.088,64.176,115.56,121.112
			C389.824,409.08,365.168,428.248,337.256,441.76z M152,176c0-48.52,39.48-88,88-88s88,39.48,88,88
			c0,30.864-16.008,58.024-40.128,73.736c-3.152,2.048-6.432,3.88-9.8,5.48c-0.4,0.192-0.792,0.392-1.192,0.576
			c-23.168,10.536-50.592,10.536-73.76,0c-0.4-0.184-0.8-0.384-1.192-0.576c-3.376-1.6-6.648-3.432-9.8-5.48
			C168.008,234.024,152,206.864,152,176z M421.832,370.584c-18.136-53.552-59.512-96.832-112.376-117.392
			C330.6,234.144,344,206.64,344,176c0-57.344-46.656-104-104-104s-104,46.656-104,104c0,30.64,13.4,58.144,34.552,77.192
			c-52.864,20.568-94.24,63.84-112.376,117.392C31.672,333.792,16,288.704,16,240C16,116.488,116.488,16,240,16s224,100.488,224,224
			C464,288.704,448.328,333.792,421.832,370.584z"/>
    </symbol>
    <symbol xmlns="http://www.w3.org/2000/svg" viewBox="0 0 511.998 511.998" id="plane">
        <g>
	<g>
		<path d="M336.746,230.801c-2.692-3.224-7.487-3.654-10.71-0.964c-3.224,2.692-3.655,7.487-0.964,10.71
			c13.455,16.115,20.865,36.573,20.865,57.605c0,15.416-3.9,29.936-10.763,42.632c-1.8-16.012-8.357-30.598-18.228-42.316
			c6.107-3.177,10.974-8.534,13.608-15.465c4.554-11.982,1.019-24.896-9.004-32.899c-18.521-14.786-41.801-22.93-65.55-22.93
			c-23.749,0-47.028,8.143-65.548,22.93c-10.024,8.003-13.558,20.916-9.004,32.899c2.633,6.93,7.5,12.29,13.6,15.468
			c-9.871,11.716-16.429,26.3-18.229,42.309c-6.862-12.695-10.761-27.213-10.761-42.627c0-49.594,40.347-89.941,89.941-89.941
			c18.389,0,36.069,5.51,51.127,15.934c3.453,2.391,8.19,1.529,10.581-1.923c2.391-3.453,1.529-8.19-1.923-10.581
			c-17.614-12.193-38.286-18.638-59.783-18.638c-57.98,0-105.149,47.169-105.149,105.149s47.169,105.149,105.149,105.149
			c57.98,0,105.149-47.169,105.149-105.149C361.146,273.565,352.48,249.646,336.746,230.801z M199.939,261.989
			c16.067-12.826,35.452-19.606,56.06-19.606c20.61,0,39.995,6.781,56.062,19.607c5.776,4.611,5.997,11.089,4.277,15.611
			c-1.593,4.19-5.523,8.514-11.945,8.879c-13.428-10.299-30.203-16.439-48.394-16.439c-18.193,0-34.97,6.14-48.399,16.439
			c-6.401-0.361-10.345-4.691-11.938-8.881C193.944,273.076,194.164,266.6,199.939,261.989z M319.293,361.986
			c-16.264,16.13-38.636,26.108-63.297,26.108c-24.664,0-47.039-9.983-63.303-26.115c-0.771-4.013-1.185-8.115-1.185-12.235
			c0-35.561,28.931-64.492,64.492-64.492c35.556,0,64.484,28.932,64.484,64.492C320.483,353.874,320.067,357.978,319.293,361.986z"
			/>
	</g>
</g>
<g>
	<g>
		<path d="M488.772,290.548H375.301c-4.199,0-7.604,3.405-7.604,7.604s3.405,7.604,7.604,7.604h113.471
			c4.422,0,8.02,3.597,8.02,8.02c0,2.004-0.739,3.914-2.098,5.399c-1.345,1.479-3.182,2.397-5.173,2.582l-122.809,11.528
			c-4.181,0.392-7.253,4.1-6.861,8.281c0.37,3.94,3.682,6.894,7.561,6.894c0.237,0,0.479-0.011,0.72-0.033l7.311-0.686
			c-3.996,5.831-6.34,12.878-6.34,20.466c0,20.014,16.283,36.296,36.296,36.296s36.296-16.283,36.296-36.296
			c0-10.022-4.084-19.108-10.674-25.683l59.915-5.624c5.775-0.539,11.105-3.201,14.988-7.474c3.916-4.276,6.072-9.833,6.072-15.65
			C512,300.968,501.581,290.548,488.772,290.548z M405.402,389.294c-11.628,0-21.088-9.46-21.088-21.088s9.46-21.088,21.088-21.088
			s21.088,9.46,21.088,21.088S417.031,389.294,405.402,389.294z"/>
	</g>
</g>
<g>
	<g>
		<path d="M145.287,333.296L22.474,321.758c-1.988-0.187-3.823-1.103-5.188-2.604c-1.34-1.464-2.078-3.374-2.078-5.379
			c0-4.422,3.597-8.02,8.02-8.02h21.887c4.199,0,7.604-3.405,7.604-7.604s-3.405-7.604-7.604-7.604H23.228
			C10.42,290.548,0,300.968,0,313.776c0,5.817,2.156,11.375,6.053,15.629c3.903,4.294,9.232,6.955,15.003,7.494l59.909,5.628
			c-6.588,6.574-10.67,15.658-10.67,25.679c0,20.014,16.283,36.296,36.296,36.296s36.296-16.283,36.296-36.296
			c0-7.583-2.341-14.627-6.333-20.456l7.311,0.686c0.242,0.022,0.483,0.033,0.72,0.033c3.879,0,7.191-2.954,7.561-6.893
			C152.539,337.396,149.469,333.688,145.287,333.296z M106.591,389.294c-11.628,0-21.088-9.46-21.088-21.088
			s9.46-21.088,21.088-21.088s21.088,9.46,21.088,21.088S118.219,389.294,106.591,389.294z"/>
	</g>
</g>
<g>
	<g>
		<path d="M136.699,290.548H70.463c-4.199,0-7.604,3.405-7.604,7.604s3.405,7.604,7.604,7.604h66.236
			c4.199,0,7.604-3.405,7.604-7.604S140.898,290.548,136.699,290.548z"/>
	</g>
</g>
<g>
	<g>
		<path d="M256,107.496c-13.416,0-24.333,10.915-24.333,24.333v45.85c0,4.199,3.405,7.604,7.604,7.604s7.604-3.405,7.604-7.604
			v-45.85c0-5.031,4.094-9.125,9.125-9.125c5.031,0,9.125,4.094,9.125,9.125v45.85c0,4.199,3.405,7.604,7.604,7.604
			c4.199,0,7.604-3.405,7.604-7.604v-45.85C280.333,118.411,269.416,107.496,256,107.496z"/>
	</g>
</g>
    </symbol>
    <symbol xmlns="http://www.w3.org/2000/svg" viewBox="0 0 512.007 512.007" id="save">
        <path d="m511.927 126.537c-.279-2.828-1.38-5.666-3.315-8.027-.747-.913 6.893 6.786-114.006-114.113-2.882-2.882-6.794-4.395-10.612-4.394-9.096 0-329.933 0-338.995 0-24.813 0-45 20.187-45 45v422c0 24.813 20.187 45 45 45h422c24.813 0 45-20.187 45-45 .001-364.186.041-339.316-.072-340.466zm-166.927-96.534v98c0 8.271-6.729 15-15 15h-19v-113zm-64 0v113h-139c-8.271 0-15-6.729-15-15v-98zm64 291h-218v-19c0-8.271 6.729-15 15-15h188c8.271 0 15 6.729 15 15zm-218 161v-131h218v131zm355-15c0 8.271-6.729 15-15 15h-92c0-19.555 0-157.708 0-180 0-24.813-20.187-45-45-45h-188c-24.813 0-45 20.187-45 45v180h-52c-8.271 0-15-6.729-15-15v-422c0-8.271 6.729-15 15-15h52v98c0 24.813 20.187 45 45 45h188c24.813 0 45-20.187 45-45v-98h2.787l104.213 104.214z"/>
    </symbol>
    <symbol xmlns="http://www.w3.org/2000/svg" viewBox="0 0 511.875 511.875" id="train">
        <path d="m321.797 95.625v-31.464c20.585-4.127 36.141-22.339 36.141-44.12v-20.041h-30v20.042c0 8.271-6.729 15-15 15h-114c-8.271 0-15-6.729-15-15v-20.042h-30v20.042c0 21.781 15.556 39.993 36.141 44.12v31.464h-103.601v311.581c0 24.813 20.187 45 45 45h27.999l-30.776 38.4v21.269h254.475v-21.269l-30.776-38.4h27.999c24.813 0 45-20.187 45-45v-311.582zm-147.653 386.25 23.729-29.606h116.131l23.729 29.606zm45.934-416.833h71.719v30.583h-71.719zm175.319 60.583v30.063h-278.92v-30.063zm0 60.063v117.312h-278.92v-117.312zm-15 236.518h-248.92c-8.271 0-15-6.729-15-15v-14.94h58.601v-30h-58.601v-29.266h278.92v29.266h-58.601v30h58.601v14.94c0 8.271-6.728 15-15 15z"/>
        <path d="m240.938 362.266h30v30h-30z"/>
    </symbol>
    <symbol xmlns="http://www.w3.org/2000/svg" viewBox="0 0 512 512" id="bus">
        <path d="m512 135c0-24.813-20.187-45-45-45h-15v-44c0-25.364-20.636-46-46-46h-300c-25.364 0-46 20.636-46 46v44h-15c-24.813 0-45 20.187-45 45v75.28h60v231.44h20v25.28c0 24.813 20.187 45 45 45h20.28c24.813 0 45-20.187 45-45v-25.28h131.441v25.28c0 24.813 20.187 45 45 45h20.279c24.813 0 45-20.187 45-45v-25.28h20v-231.44h60zm-406-105h300c8.822 0 16 7.178 16 16v14h-332v-14c0-8.822 7.178-16 16-16zm-76 150.28v-45.28c0-8.271 6.729-15 15-15h15v60.28zm392 201.44v30h-95.42v-60h-141.161v60h-95.419v-30h60.419v-30h-60.419v-57.504c55.122 8.133 110.56 12.215 166 12.215s110.877-4.082 166-12.215v57.504h-60.42v30zm-125.42 30h-81.161v-30h81.161zm-136.3 55.28c0 8.271-6.729 15-15 15h-20.28c-8.271 0-15-6.729-15-15v-25.28h50.28zm241.72 0c0 8.271-6.729 15-15 15h-20.279c-8.271 0-15-6.729-15-15v-25.28h50.279zm20-203.109c-110.22 16.711-221.779 16.711-332 0v-53.611-120.28h332v120.28zm60-83.611h-30v-60.28h15c8.271 0 15 6.729 15 15z"/>
    </symbol>
    <symbol xmlns="http://www.w3.org/2000/svg" viewBox="0 0 64 64" id="cart">
       <path d="M51,8A11.007,11.007,0,0,0,40,19a10.665,10.665,0,0,0,.43,3H17.36L16.19,10.89A3.2,3.2,0,0,0,13,8H5a2.922,2.922,0,0,0-2.11.88,2.966,2.966,0,0,0-.81,2.8A3.133,3.133,0,0,0,5.16,14h4.95l3.77,34.01A5,5,0,0,0,14,58h5.1a5,5,0,0,0,9.8,0H39.1a5,5,0,0,0,9.8,0H53a1,1,0,0,0,0-2H48.9a5,5,0,0,0-9.8,0H28.9a5,5,0,0,0-9.8,0H14a3,3,0,0,1,0-6H52.35a2.99,2.99,0,0,0,2.94-2.43l4.13-21.51A10.987,10.987,0,0,0,51,8ZM44,54a3,3,0,1,1-3,3A3.009,3.009,0,0,1,44,54ZM24,54a3,3,0,1,1-3,3A3.009,3.009,0,0,1,24,54Zm29.33-6.81a1,1,0,0,1-.98.81H15.9L12.09,13.77A2,2,0,0,0,10.1,12H5.16a1.131,1.131,0,0,1-1.13-.77.949.949,0,0,1,.28-.94A.928.928,0,0,1,5,10h8a1.213,1.213,0,0,1,1.2,1.1l1.27,12a1,1,0,0,0,.99.9H41.21a11.116,11.116,0,0,0,1.31,2H16.85a1,1,0,0,0-.74.33,1.036,1.036,0,0,0-.26.77l1.77,18a1,1,0,0,0,.99.9H51a1,1,0,0,0,.99-.84l2.63-15.78a11.639,11.639,0,0,0,2.35-1.15ZM36,38V34h7.22l-.45,4Zm6.55,2-.45,4H36V40ZM36,32V28h7.88l-.44,4Zm-8.77,6-.45-4H34v4ZM34,40v4H27.9l-.45-4Zm-7.44-8-.44-4H34v4Zm-1.79,2,.45,4H18.93l-.39-4Zm-6.43-2-.39-4H24.1l.45,4Zm7.1,8,.44,4H19.52l-.39-4Zm26.38-6-.67,4H44.78l.45-4Zm-6.37-2,.37-3.3a10.631,10.631,0,0,0,6.69,1.18L52.15,32Zm5.37,8-.67,4H44.12l.44-4ZM51,28a9,9,0,1,1,9-9A9.014,9.014,0,0,1,51,28Z"/>
       <path d="M50,20v5a1,1,0,0,0,2,0V20h5a1,1,0,0,0,0-2H52V13a1,1,0,0,0-2,0v5H45a1,1,0,0,0,0,2Z"/>
    </symbol>
</svg>